<svg width="151" height="120" viewBox="0 0 354 80" fill="none" xmlns="http://www.w3.org/2000/svg">
<path fill-rule="evenodd" clip-rule="evenodd" d="M345.301 64.4345V68.0645C345.301 74.6314 338.594 79.9531 330.351 79.9531H15.1591C6.9011 79.9531 0.209162 74.6314 0.209162 68.0645V64.4345H345.301ZM346.32 60.9102H0.208124V37.6262H81.8122L87.1453 50.3256H273.237L280.535 36.9216H353.275L346.32 60.9102ZM102.23 19.2756V46.8003H124.256V19.2756H102.23ZM131.643 19.2756V46.8003H149.976V19.2756H131.643ZM157.362 19.2756V46.8003H175.71V19.2756H157.362ZM183.096 19.2756V46.8003H201.429V19.2756H183.096ZM208.816 19.2756V46.8003H227.163V19.2756H208.816ZM234.55 19.2756V46.8003H258.186V19.2756H234.55ZM13.9486 27.1583H69.4052V34.1012H13.9486V27.1583ZM13.9486 21.2846V0.937637H69.4052V21.2846H13.9486ZM58.68 10.1126V15.0466C58.68 16.6678 57.0254 17.9835 54.9868 17.9835C52.9482 17.9835 51.2936 16.6678 51.2936 15.0466V10.1126C51.2936 8.49146 52.9482 7.17573 54.9868 7.17573C57.0254 7.17573 58.68 8.49146 58.68 10.1126ZM45.3699 10.1126V15.0466C45.3699 16.6678 43.7153 17.9835 41.6767 17.9835C39.638 17.9835 37.9835 16.6678 37.9835 15.0466V10.1126C37.9835 8.49146 39.638 7.17573 41.6767 7.17573C43.7153 7.17573 45.3699 8.49146 45.3699 10.1126ZM32.0597 10.1126V15.0466C32.0597 16.6678 30.4052 17.9835 28.3666 17.9835C26.3279 17.9835 24.6734 16.6678 24.6734 15.0466V10.1126C24.6734 8.49146 26.3279 7.17573 28.3666 7.17573C30.4052 7.17573 32.0597 8.49146 32.0597 10.1126Z" fill="black"/>
</svg>
