<svg width="107" height="130" transform="scale(-1,1)" xmlns="http://www.w3.org/2000/svg" viewBox="0 0 100 125" fill="none" x="0px" y="0px"><path fill-rule="evenodd" clip-rule="evenodd" d="M68.4885 18.9552C68.4885 18.4277 68.9313 18 69.4776 18H75.4121C75.9584 18 76.4012 18.4277 76.4012 18.9552V31.3731H81.3467C81.893 31.3731 82.3358 31.8008 82.3358 32.3284V54.2985H93.0106C93.6307 54.2985 94.0979 54.8433 93.9824 55.4317L88.9175 81.2228C88.829 81.6736 88.4209 82 87.9458 82H24.027C23.6892 82 23.3748 81.8335 23.1931 81.5585L6.15683 55.7675C5.73681 55.1316 6.20972 54.2985 6.9907 54.2985H18.8643L23.0917 49.8331C23.2791 49.6351 23.544 49.5224 23.8217 49.5224H46.9592L50.6598 32.136C50.7543 31.6919 51.1591 31.3731 51.6286 31.3731H56.6194V18.9552C56.6194 18.4277 57.0622 18 57.6085 18H63.543C64.0893 18 64.5321 18.4277 64.5321 18.9552V31.3731H68.4885V18.9552Z" fill="black"/></svg>