<svg width="180"  xmlns="http://www.w3.org/2000/svg" version="1.1" viewBox="-5.0 -10.0 110.0 135.0" transform="scale(-1,1)">
 <path d="m5.625 57.977v1.207c0 2.1836 1.7734 3.9531 3.9531 3.9531h83.344c2.1836 0 3.9531-1.7695 3.9531-3.9531v-1.207zm-0.26953-1.1719h91.52v-7.7422h-21.578l-1.4102 4.2227h-49.207l-1.9297-4.457h-19.234zm64.543-13.844v9.1523h-5.8242v-9.1523zm-7.7773 0v9.1523h-4.8477v-9.1523h4.8477zm-6.8008 0v9.1523h-4.8516v-9.1523h4.8516zm-6.8047 0v9.1523h-4.8477v-9.1523h4.8477zm-6.8008 0v9.1523h-4.8516v-9.1523h4.8516zm-6.8047 0v9.1523h-6.25v-9.1523h6.25zm58.332 2.6211h-14.664v2.3086h14.664zm0-1.9531v-6.7656h-14.664v6.7656zm-11.828-3.7148v1.6406c0 0.53906 0.4375 0.97656 0.97656 0.97656s0.97656-0.4375 0.97656-0.97656v-1.6406c0-0.53906-0.4375-0.97656-0.97656-0.97656s-0.97656 0.4375-0.97656 0.97656zm3.5195 0v1.6406c0 0.53906 0.4375 0.97656 0.97656 0.97656 0.53906 0 0.97656-0.4375 0.97656-0.97656v-1.6406c0-0.53906-0.4375-0.97656-0.97656-0.97656-0.53906 0-0.97656 0.4375-0.97656 0.97656zm3.5195 0v1.6406c0 0.53906 0.4375 0.97656 0.97656 0.97656 0.53906 0 0.97656-0.4375 0.97656-0.97656v-1.6406c0-0.53906-0.4375-0.97656-0.97656-0.97656-0.53906 0-0.97656 0.4375-0.97656 0.97656z" fill-rule="evenodd"/>
</svg>
