<svg width="250" height="172" viewBox="0 0 250 172" fill="none" xmlns="http://www.w3.org/2000/svg">
<path fill-rule="evenodd" clip-rule="evenodd" d="M72.8624 2.6483C72.8624 1.23882 71.6138 0.0960083 70.0732 0.0960083H53.3379C51.7973 0.0960083 50.5487 1.23882 50.5487 2.6483V35.8289H36.6023C35.0618 35.8289 33.8131 36.9717 33.8131 38.3815V97.0856H3.71014C1.96146 97.0856 0.643955 98.5413 0.969666 100.114L15.2527 169.027C15.5022 170.232 16.6531 171.104 17.9929 171.104H198.244C199.196 171.104 200.083 170.659 200.595 169.924L248.638 101.011C249.822 99.3116 248.489 97.0856 246.286 97.0856H212.803L200.881 85.154C200.353 84.625 199.606 84.3239 198.823 84.3239H133.575L123.139 37.8674C122.873 36.6808 121.731 35.8289 120.407 35.8289H106.333V2.6483C106.333 1.23882 105.085 0.0960083 103.544 0.0960083H86.8088C85.2682 0.0960083 84.0195 1.23882 84.0195 2.6483V35.8289H72.8624V2.6483Z" fill="black"/>
</svg>
